<svg xmlns="http://www.w3.org/2000/svg" xmlns:xlink="http://www.w3.org/1999/xlink" width="500" zoomAndPan="magnify" viewBox="0 0 375 374.999991" height="500" preserveAspectRatio="xMidYMid meet" version="1.0"><defs><g/><clipPath id="cce5bc1fb5"><path d="M 73.148438 72.777344 L 302.648438 72.777344 L 302.648438 302.277344 L 73.148438 302.277344 Z M 73.148438 72.777344 " clip-rule="nonzero"/></clipPath><clipPath id="54976b9500"><path d="M 187.898438 72.777344 C 124.527344 72.777344 73.148438 124.152344 73.148438 187.527344 C 73.148438 250.902344 124.527344 302.277344 187.898438 302.277344 C 251.273438 302.277344 302.648438 250.902344 302.648438 187.527344 C 302.648438 124.152344 251.273438 72.777344 187.898438 72.777344 " clip-rule="nonzero"/></clipPath></defs><g clip-path="url(#cce5bc1fb5)"><g clip-path="url(#54976b9500)"><path stroke-linecap="butt" transform="matrix(0.750383, 0, 0, 0.750383, 73.150224, 72.77645)" fill="none" stroke-linejoin="miter" d="M 152.919505 0.0011905 C 68.467852 0.0011905 -0.00238038 68.466218 -0.00238038 152.923076 C -0.00238038 237.379934 68.467852 305.844961 152.919505 305.844961 C 237.376363 305.844961 305.84139 237.379934 305.84139 152.923076 C 305.84139 68.466218 237.376363 0.0011905 152.919505 0.0011905 " stroke="#231f20" stroke-width="2" stroke-opacity="1" stroke-miterlimit="4"/></g></g><g fill="#231f20" fill-opacity="1"><g transform="translate(111.703935, 231.500229)"><g><path d="M 7.699219 0 L 27.167969 0 C 54.117188 0 70.066406 -16.390625 70.066406 -43.996094 C 70.066406 -72.925781 53.566406 -87.996094 27.167969 -87.996094 L 7.699219 -87.996094 C 8.359375 -78.207031 8.359375 -74.136719 8.359375 -67.425781 L 8.359375 -20.679688 C 8.359375 -13.859375 8.359375 -9.789062 7.699219 0 Z M 27.058594 -1.429688 L 14.628906 -1.429688 L 14.628906 -86.675781 L 27.058594 -86.675781 C 47.957031 -86.675781 63.027344 -72.597656 63.027344 -43.996094 C 63.027344 -16.5 47.957031 -1.429688 27.058594 -1.429688 Z M 27.058594 -1.429688 "/></g></g></g><g fill="#231f20" fill-opacity="1"><g transform="translate(186.168552, 231.500229)"><g><path d="M 7.699219 -87.996094 L 11.660156 -83.484375 C 21.230469 -86.234375 33.109375 -86.675781 37.289062 -86.675781 L 59.726562 -86.675781 L 5.5 -2.640625 L 5.5 0 L 65.996094 0 L 68.636719 -4.511719 C 57.855469 -1.761719 45.976562 -1.429688 41.25 -1.429688 L 12.097656 -1.429688 L 66.328125 -85.355469 L 66.328125 -87.996094 Z M 7.699219 -87.996094 "/></g></g></g></svg>